<svg width="180" height="180" viewBox="0 0 180 180" fill="none" xmlns="http://www.w3.org/2000/svg">
  <defs>
    <linearGradient id="uniPunchBody" x1="56" y1="56" x2="142" y2="144" gradientUnits="userSpaceOnUse">
      <stop stop-color="#FFF6FF"/>
      <stop offset="0.48" stop-color="#F0D3FF"/>
      <stop offset="1" stop-color="#C86CFF"/>
    </linearGradient>
    <linearGradient id="uniPunchMane" x1="74" y1="44" x2="146" y2="102" gradientUnits="userSpaceOnUse">
      <stop stop-color="#7CFFF3"/>
      <stop offset="0.35" stop-color="#6AB6FF"/>
      <stop offset="0.68" stop-color="#FF7AD8"/>
      <stop offset="1" stop-color="#FFD970"/>
    </linearGradient>
    <linearGradient id="uniPunchHorn" x1="0" y1="44" x2="0" y2="86" gradientUnits="userSpaceOnUse">
      <stop stop-color="#FFF5B8"/>
      <stop offset="1" stop-color="#FFB41D"/>
    </linearGradient>
  </defs>
  <ellipse cx="97" cy="157" rx="44" ry="12" fill="#220A34" fill-opacity="0.25"/>
  <path d="M50 129C59 118 65 108 70 97" stroke="#BB72FF" stroke-width="10" stroke-linecap="round"/>
  <path d="M65 101L60 143" stroke="#8B37C8" stroke-width="11" stroke-linecap="round"/>
  <path d="M92 106L91 146" stroke="#8B37C8" stroke-width="11" stroke-linecap="round"/>
  <path d="M117 102L122 145" stroke="#8B37C8" stroke-width="11" stroke-linecap="round"/>
  <path d="M142 98L150 140" stroke="#8B37C8" stroke-width="11" stroke-linecap="round"/>
  <ellipse cx="100" cy="97" rx="41" ry="35" fill="url(#uniPunchBody)"/>
  <ellipse cx="98" cy="89" rx="36" ry="31" fill="#FCEEFF"/>
  <path d="M87 73C97 57 120 48 141 50C151 51 159 56 165 63C157 69 151 73 145 80C137 89 131 96 123 103C116 97 109 91 101 84C95 78 91 75 87 73Z" fill="url(#uniPunchMane)"/>
  <path d="M116 46L112 80H124L130 49L124 43L116 46Z" fill="url(#uniPunchHorn)"/>
  <path d="M120 48L116 67" stroke="#FFF0A2" stroke-width="3" stroke-linecap="round"/>
  <path d="M77 102L61 114" stroke="#C47EFF" stroke-width="8" stroke-linecap="round"/>
  <path d="M103 100L146 92" stroke="#FF8ED9" stroke-width="11" stroke-linecap="round"/>
  <circle cx="155" cy="90" r="9" fill="#FFD970"/>
  <path d="M129 79L157 70" stroke="#FFF6C4" stroke-width="6" stroke-linecap="round"/>
  <path d="M132 109L161 106" stroke="#FFF6C4" stroke-width="5" stroke-linecap="round"/>
  <circle cx="84" cy="90" r="7" fill="#7E31B0"/>
  <circle cx="105" cy="88" r="7" fill="#7E31B0"/>
  <circle cx="86" cy="88" r="2" fill="#FAF6FF"/>
  <circle cx="107" cy="86" r="2" fill="#FAF6FF"/>
  <path d="M93 102L98 109" stroke="#8D4DBB" stroke-width="5" stroke-linecap="round"/>
  <path d="M81 112C87 116 99 115 108 108" stroke="#8D4DBB" stroke-width="5" stroke-linecap="round"/>
</svg>
