<svg width="180" height="180" viewBox="0 0 180 180" fill="none" xmlns="http://www.w3.org/2000/svg">
  <defs>
    <linearGradient id="uniIdleBody" x1="58" y1="54" x2="136" y2="144" gradientUnits="userSpaceOnUse">
      <stop stop-color="#FFF6FF"/>
      <stop offset="0.48" stop-color="#F0D3FF"/>
      <stop offset="1" stop-color="#C86CFF"/>
    </linearGradient>
    <linearGradient id="uniIdleMane" x1="74" y1="42" x2="146" y2="102" gradientUnits="userSpaceOnUse">
      <stop stop-color="#7CFFF3"/>
      <stop offset="0.35" stop-color="#6AB6FF"/>
      <stop offset="0.68" stop-color="#FF7AD8"/>
      <stop offset="1" stop-color="#FFD970"/>
    </linearGradient>
    <linearGradient id="uniIdleHorn" x1="0" y1="44" x2="0" y2="86" gradientUnits="userSpaceOnUse">
      <stop stop-color="#FFF5B8"/>
      <stop offset="1" stop-color="#FFB41D"/>
    </linearGradient>
  </defs>
  <ellipse cx="95" cy="157" rx="43" ry="12" fill="#220A34" fill-opacity="0.25"/>
  <path d="M48 129C57 119 62 109 67 98" stroke="#BB72FF" stroke-width="10" stroke-linecap="round"/>
  <path d="M63 101L57 143" stroke="#8B37C8" stroke-width="11" stroke-linecap="round"/>
  <path d="M90 104L87 146" stroke="#8B37C8" stroke-width="11" stroke-linecap="round"/>
  <path d="M115 101L120 145" stroke="#8B37C8" stroke-width="11" stroke-linecap="round"/>
  <path d="M140 97L148 141" stroke="#8B37C8" stroke-width="11" stroke-linecap="round"/>
  <path d="M58 145H72" stroke="#4E1F73" stroke-width="8" stroke-linecap="round"/>
  <path d="M83 148H96" stroke="#4E1F73" stroke-width="8" stroke-linecap="round"/>
  <path d="M112 147H126" stroke="#4E1F73" stroke-width="8" stroke-linecap="round"/>
  <path d="M139 143H151" stroke="#4E1F73" stroke-width="8" stroke-linecap="round"/>
  <ellipse cx="99" cy="96" rx="41" ry="35" fill="url(#uniIdleBody)"/>
  <ellipse cx="98" cy="88" rx="36" ry="31" fill="#FCEEFF"/>
  <path d="M86 72C95 56 118 47 140 50C149 52 157 57 163 63C155 68 149 73 143 80C136 88 130 95 122 102C115 96 109 90 101 83C95 77 90 74 86 72Z" fill="url(#uniIdleMane)"/>
  <path d="M115 46L110 80H122L128 49L122 43L115 46Z" fill="url(#uniIdleHorn)"/>
  <path d="M119 48L115 67" stroke="#FFF0A2" stroke-width="3" stroke-linecap="round"/>
  <path d="M76 102L60 113" stroke="#C47EFF" stroke-width="8" stroke-linecap="round"/>
  <path d="M123 100L138 112" stroke="#C47EFF" stroke-width="8" stroke-linecap="round"/>
  <circle cx="88" cy="91" r="7" fill="#7E31B0"/>
  <circle cx="109" cy="89" r="7" fill="#7E31B0"/>
  <circle cx="90" cy="89" r="2" fill="#FAF6FF"/>
  <circle cx="111" cy="87" r="2" fill="#FAF6FF"/>
  <path d="M96 103L101 110" stroke="#8D4DBB" stroke-width="5" stroke-linecap="round"/>
  <path d="M84 114C90 118 103 118 112 112" stroke="#8D4DBB" stroke-width="5" stroke-linecap="round"/>
  <path d="M148 59L152 63L157 59L154 65L159 69L153 69L151 75L149 69L143 68L148 64L148 59Z" fill="#FFF6C4"/>
</svg>
