<svg width="180" height="180" viewBox="0 0 180 180" fill="none" xmlns="http://www.w3.org/2000/svg">
  <defs>
    <linearGradient id="wolfStrideBody" x1="54" y1="54" x2="140" y2="140" gradientUnits="userSpaceOnUse">
      <stop stop-color="#D6F3FF"/>
      <stop offset="0.55" stop-color="#63B5FF"/>
      <stop offset="1" stop-color="#284EAD"/>
    </linearGradient>
    <linearGradient id="wolfStrideFur" x1="70" y1="44" x2="144" y2="112" gradientUnits="userSpaceOnUse">
      <stop stop-color="#F2FCFF"/>
      <stop offset="1" stop-color="#7CC8FF"/>
    </linearGradient>
  </defs>
  <ellipse cx="96" cy="151" rx="46" ry="12" fill="#08142C" fill-opacity="0.32"/>
  <path d="M47 126C56 118 61 110 68 96" stroke="#3A6CC4" stroke-width="10" stroke-linecap="round"/>
  <path d="M58 101L50 139" stroke="#1D3A82" stroke-width="11" stroke-linecap="round"/>
  <path d="M90 103L83 139" stroke="#1D3A82" stroke-width="11" stroke-linecap="round"/>
  <path d="M116 98L116 140" stroke="#1D3A82" stroke-width="11" stroke-linecap="round"/>
  <path d="M142 91L151 129" stroke="#1D3A82" stroke-width="11" stroke-linecap="round"/>
  <path d="M53 140H67" stroke="#0E214F" stroke-width="8" stroke-linecap="round"/>
  <path d="M79 143H93" stroke="#0E214F" stroke-width="8" stroke-linecap="round"/>
  <path d="M110 142H124" stroke="#0E214F" stroke-width="8" stroke-linecap="round"/>
  <path d="M140 133H153" stroke="#0E214F" stroke-width="8" stroke-linecap="round"/>
  <path d="M55 87C55 62 80 49 111 53C137 57 152 76 150 98C148 121 125 135 96 132C71 128 55 111 55 87Z" fill="url(#wolfStrideBody)"/>
  <path d="M64 73L83 46L95 73" fill="#91D8FF"/>
  <path d="M107 67L127 40L135 72" fill="#A9E9FF"/>
  <path d="M69 79C76 70 89 64 106 63C123 62 137 68 146 80C152 89 153 101 149 112C143 126 128 135 110 137C92 139 74 133 64 123C55 113 56 95 69 79Z" fill="url(#wolfStrideFur)"/>
  <path d="M84 85C94 78 108 76 121 79C133 82 142 91 144 101C146 111 140 122 131 127C121 133 109 135 95 132C85 129 76 123 72 114C69 105 71 95 78 90C80 88 82 86 84 85Z" fill="#C7ECFF"/>
  <path d="M134 87L158 77" stroke="#6ACDFF" stroke-width="7" stroke-linecap="round"/>
  <ellipse cx="100" cy="96" rx="7" ry="6" fill="#FFE35B"/>
  <ellipse cx="124" cy="91" rx="7" ry="6" fill="#FFE35B"/>
  <circle cx="101" cy="96" r="2" fill="#08142C"/>
  <circle cx="125" cy="91" r="2" fill="#08142C"/>
  <path d="M91 111C97 117 110 120 122 117" stroke="#17377D" stroke-width="5" stroke-linecap="round"/>
  <path d="M25 120L42 108L46 126L60 114" stroke="#A0E9FF" stroke-width="6" stroke-linecap="round" stroke-linejoin="round" stroke-opacity="0.7"/>
</svg>
