<svg width="180" height="180" viewBox="0 0 180 180" fill="none" xmlns="http://www.w3.org/2000/svg">
  <defs>
    <linearGradient id="wolfIdleBody" x1="56" y1="50" x2="132" y2="146" gradientUnits="userSpaceOnUse">
      <stop stop-color="#D6F3FF"/>
      <stop offset="0.55" stop-color="#63B5FF"/>
      <stop offset="1" stop-color="#284EAD"/>
    </linearGradient>
    <linearGradient id="wolfIdleFur" x1="64" y1="44" x2="140" y2="112" gradientUnits="userSpaceOnUse">
      <stop stop-color="#F2FCFF"/>
      <stop offset="1" stop-color="#7CC8FF"/>
    </linearGradient>
  </defs>
  <ellipse cx="94" cy="157" rx="44" ry="12" fill="#08142C" fill-opacity="0.3"/>
  <path d="M48 131C56 120 60 109 63 98" stroke="#3A6CC4" stroke-width="10" stroke-linecap="round"/>
  <path d="M62 102L55 143" stroke="#15346F" stroke-width="11" stroke-linecap="round"/>
  <path d="M89 103L85 146" stroke="#15346F" stroke-width="11" stroke-linecap="round"/>
  <path d="M115 100L119 145" stroke="#15346F" stroke-width="11" stroke-linecap="round"/>
  <path d="M138 97L146 141" stroke="#15346F" stroke-width="11" stroke-linecap="round"/>
  <path d="M56 145H70" stroke="#0B1E48" stroke-width="8" stroke-linecap="round"/>
  <path d="M81 148H95" stroke="#0B1E48" stroke-width="8" stroke-linecap="round"/>
  <path d="M111 147H126" stroke="#0B1E48" stroke-width="8" stroke-linecap="round"/>
  <path d="M138 143H151" stroke="#0B1E48" stroke-width="8" stroke-linecap="round"/>
  <ellipse cx="98" cy="96" rx="41" ry="36" fill="url(#wolfIdleBody)"/>
  <path d="M73 79L84 47L98 74" fill="#91D8FF"/>
  <path d="M105 73L125 42L132 77" fill="#B0EEFF"/>
  <ellipse cx="97" cy="87" rx="37" ry="31" fill="url(#wolfIdleFur)"/>
  <ellipse cx="96" cy="95" rx="24" ry="21" fill="#C7ECFF"/>
  <path d="M73 100L59 112" stroke="#4F93F0" stroke-width="8" stroke-linecap="round"/>
  <path d="M121 98L136 111" stroke="#4F93F0" stroke-width="8" stroke-linecap="round"/>
  <ellipse cx="87" cy="90" rx="7" ry="6" fill="#FFE35B"/>
  <ellipse cx="108" cy="88" rx="7" ry="6" fill="#FFE35B"/>
  <circle cx="88" cy="90" r="2" fill="#07122A"/>
  <circle cx="109" cy="88" r="2" fill="#07122A"/>
  <path d="M95 103L99 109" stroke="#17377D" stroke-width="5" stroke-linecap="round"/>
  <path d="M82 114C88 118 101 118 110 112" stroke="#17377D" stroke-width="5" stroke-linecap="round"/>
  <path d="M52 82L64 76" stroke="#D8FBFF" stroke-width="4" stroke-linecap="round" stroke-opacity="0.6"/>
</svg>
