<svg width="180" height="180" viewBox="0 0 180 180" fill="none" xmlns="http://www.w3.org/2000/svg">
  <defs>
    <linearGradient id="wolfSpecBody" x1="56" y1="54" x2="136" y2="146" gradientUnits="userSpaceOnUse">
      <stop stop-color="#E8FBFF"/>
      <stop offset="0.5" stop-color="#82D6FF"/>
      <stop offset="1" stop-color="#2A57B9"/>
    </linearGradient>
    <linearGradient id="wolfSpecFur" x1="60" y1="42" x2="146" y2="110" gradientUnits="userSpaceOnUse">
      <stop stop-color="#F8FFFF"/>
      <stop offset="1" stop-color="#90E0FF"/>
    </linearGradient>
  </defs>
  <ellipse cx="94" cy="157" rx="44" ry="12" fill="#08142C" fill-opacity="0.3"/>
  <path d="M62 102L56 143" stroke="#15346F" stroke-width="11" stroke-linecap="round"/>
  <path d="M88 106L85 146" stroke="#15346F" stroke-width="11" stroke-linecap="round"/>
  <path d="M116 102L121 145" stroke="#15346F" stroke-width="11" stroke-linecap="round"/>
  <path d="M141 98L149 140" stroke="#15346F" stroke-width="11" stroke-linecap="round"/>
  <ellipse cx="96" cy="98" rx="39" ry="34" fill="url(#wolfSpecBody)"/>
  <path d="M74 82L86 48L100 78" fill="#A9E9FF"/>
  <path d="M108 75L129 43L136 79" fill="#CFFAFF"/>
  <ellipse cx="94" cy="92" rx="35" ry="30" fill="url(#wolfSpecFur)"/>
  <ellipse cx="93" cy="98" rx="22" ry="19" fill="#D9F8FF"/>
  <path d="M72 102L58 114" stroke="#4F93F0" stroke-width="8" stroke-linecap="round"/>
  <path d="M123 96L139 110" stroke="#4F93F0" stroke-width="8" stroke-linecap="round"/>
  <ellipse cx="80" cy="90" rx="7" ry="6" fill="#FFE35B"/>
  <ellipse cx="101" cy="88" rx="7" ry="6" fill="#FFE35B"/>
  <circle cx="81" cy="90" r="2" fill="#07122A"/>
  <circle cx="102" cy="88" r="2" fill="#07122A"/>
  <path d="M90 102L94 109" stroke="#17377D" stroke-width="5" stroke-linecap="round"/>
  <path d="M77 112C83 117 95 118 103 112" stroke="#17377D" stroke-width="5" stroke-linecap="round"/>
  <path d="M36 88C54 72 80 64 112 64C136 64 153 68 164 73" stroke="#AEEFFF" stroke-width="6" stroke-linecap="round" stroke-opacity="0.85"/>
  <path d="M28 100C49 82 80 74 115 75C139 75 157 79 168 84" stroke="#D8FBFF" stroke-width="4" stroke-linecap="round" stroke-opacity="0.75"/>
  <path d="M42 72L48 78L55 72L51 80L58 85L50 85L47 93L45 85L37 84L43 79L42 72Z" fill="#E5FDFF" fill-opacity="0.9"/>
</svg>
