<svg width="800" height="220" viewBox="0 0 800 220" fill="none" xmlns="http://www.w3.org/2000/svg">
  <defs>
    <linearGradient id="arena-glow" x1="400" y1="0" x2="400" y2="220" gradientUnits="userSpaceOnUse">
      <stop stop-color="#FFB567" stop-opacity="0.36"/>
      <stop offset="1" stop-color="#0E0A17" stop-opacity="0"/>
    </linearGradient>
  </defs>
  <rect width="800" height="220" fill="url(#arena-glow)"/>
  <path d="M0 127L35 112L74 127L111 101L154 129L194 108L231 128L266 111L303 129L342 97L381 130L420 108L459 129L496 109L537 128L578 102L618 129L655 109L693 127L733 101L768 125L800 114V220H0V127Z" fill="#1A1028"/>
  <path d="M0 154L24 136H56L80 154L109 136H139L164 154L192 137H224L250 154L276 136H308L336 154L363 136H395L420 154L449 137H480L506 154L536 137H568L594 154L621 136H653L678 154L709 138H743L771 154L800 138V220H0V154Z" fill="#281538"/>
  <path d="M74 54V124" stroke="#6A3923" stroke-width="11" stroke-linecap="round"/>
  <path d="M726 54V124" stroke="#6A3923" stroke-width="11" stroke-linecap="round"/>
  <path d="M74 54L126 42L178 54" stroke="#C54E23" stroke-width="9" stroke-linecap="round" stroke-linejoin="round"/>
  <path d="M622 54L674 42L726 54" stroke="#C54E23" stroke-width="9" stroke-linecap="round" stroke-linejoin="round"/>
  <path d="M120 58H684" stroke="#FDB14D" stroke-width="4" stroke-dasharray="10 12" stroke-opacity="0.65"/>
</svg>
